<mxfile host="65bd71144e">
    <diagram id="EJf0ZjcBWsQw6mSYgzlI" name="Page-1">
        <mxGraphModel dx="907" dy="399" grid="1" gridSize="10" guides="1" tooltips="1" connect="1" arrows="1" fold="1" page="1" pageScale="1" pageWidth="850" pageHeight="1100" math="0" shadow="0">
            <root>
                <mxCell id="0"/>
                <mxCell id="1" parent="0"/>
                <mxCell id="5" style="edgeStyle=none;html=1;exitX=1;exitY=0.5;exitDx=0;exitDy=0;entryX=0;entryY=0.5;entryDx=0;entryDy=0;" edge="1" parent="1" source="7" target="10">
                    <mxGeometry relative="1" as="geometry"/>
                </mxCell>
                <mxCell id="6" value="" style="edgeStyle=none;html=1;" edge="1" parent="1">
                    <mxGeometry relative="1" as="geometry">
                        <mxPoint x="220" y="96" as="sourcePoint"/>
                        <mxPoint x="220" y="196" as="targetPoint"/>
                    </mxGeometry>
                </mxCell>
                <mxCell id="7" value="User" style="rounded=0;whiteSpace=wrap;html=1;" vertex="1" parent="1">
                    <mxGeometry x="160" y="80" width="120" height="60" as="geometry"/>
                </mxCell>
                <mxCell id="8" style="edgeStyle=none;html=1;exitX=1;exitY=0.5;exitDx=0;exitDy=0;entryX=0;entryY=0.5;entryDx=0;entryDy=0;" edge="1" parent="1" source="10" target="12">
                    <mxGeometry relative="1" as="geometry"/>
                </mxCell>
                <mxCell id="9" value="ID&lt;br&gt;Name&lt;br&gt;Description&lt;br&gt;Location&lt;br&gt;DateTime&lt;br&gt;UserID" style="edgeStyle=none;html=1;" edge="1" parent="1">
                    <mxGeometry x="1" y="50" relative="1" as="geometry">
                        <mxPoint x="420" y="200" as="targetPoint"/>
                        <mxPoint x="-50" y="50" as="offset"/>
                        <mxPoint x="420" y="140" as="sourcePoint"/>
                    </mxGeometry>
                </mxCell>
                <mxCell id="10" value="Event" style="rounded=0;whiteSpace=wrap;html=1;" vertex="1" parent="1">
                    <mxGeometry x="360" y="80" width="120" height="60" as="geometry"/>
                </mxCell>
                <mxCell id="11" value="id&lt;br&gt;event_id&lt;br&gt;user_id" style="edgeStyle=none;html=1;" edge="1" parent="1">
                    <mxGeometry x="1" y="50" relative="1" as="geometry">
                        <mxPoint x="620" y="197" as="targetPoint"/>
                        <mxPoint x="-50" y="50" as="offset"/>
                        <mxPoint x="620" y="127" as="sourcePoint"/>
                    </mxGeometry>
                </mxCell>
                <mxCell id="12" value="Registation" style="rounded=0;whiteSpace=wrap;html=1;" vertex="1" parent="1">
                    <mxGeometry x="560" y="80" width="120" height="60" as="geometry"/>
                </mxCell>
                <mxCell id="14" value="" style="edgeStyle=none;html=1;" edge="1" parent="1" target="7">
                    <mxGeometry relative="1" as="geometry">
                        <mxPoint x="220" y="190" as="sourcePoint"/>
                    </mxGeometry>
                </mxCell>
                <mxCell id="13" value="ID&#10;Email&#10;Password&#10;" style="shape=waypoint;sketch=0;size=6;pointerEvents=1;points=[];fillColor=default;resizable=0;rotatable=0;perimeter=centerPerimeter;snapToPoint=1;rounded=0;" vertex="1" parent="1">
                    <mxGeometry x="210" y="230" width="20" height="20" as="geometry"/>
                </mxCell>
            </root>
        </mxGraphModel>
    </diagram>
</mxfile>